<svg xmlns="http://www.w3.org/2000/svg" version="1.1" xmlns:xlink="http://www.w3.org/1999/xlink" xmlns:svgjs="http://svgjs.com/svgjs" width="20" height="20" x="0" y="0" viewBox="0 0 24 24" style="enable-background:new 0 0 512 512" xml:space="preserve" class=""><g><path clip-rule="evenodd" d="m11.5401 2.60289c.4726-.12101.9686-.11406 1.4375.01996.5356.15306.9974.52348 1.5876.99697.0345.02766.0694.05567.1048.08401l5.599 4.48287c.0212.01697.0422.03373.0629.05029.3785.30266.6751.53984.895.84335.1929.26639.337.56557.4245.88338.0993.36058.099.74018.0987 1.22258v.0839 6.296c0 .5329 0 .9778-.0296 1.3413-.031.3799-.0981.7366-.2699 1.0739-.2638.5178-.6851.9384-1.2022 1.2019-.3373.1718-.6938.2389-1.0736.27-.3643.0297-.8101.0297-1.3445.0297h-11.66009c-.53434 0-.9804 0-1.34481-.0297-.37994-.0311-.73672-.0982-1.07402-.27-.51765-.2638-.93803-.6846-1.20157-1.2019-.17185-.3372-.23896-.6939-.26999-1.0738-.02976-.3642-.02975-.8101-.02974-1.3442v-6.2383c0-.0294-.00002-.0585-.00004-.0872-.00034-.4987-.00061-.8909.10487-1.26187.09279-.32637.24515-.63301.44977-.90423.23202-.30753.54488-.54375.94182-.84345.02345-.01771.0472-.03564.07124-.05382l6.00099-4.53778c.03696-.02795.07341-.05558.1094-.08285.60167-.4559 1.07297-.81299 1.61197-.95101zm1.0254 1.46222c-.2133-.06095-.4386-.06408-.6534-.0091-.2077.0532-.4229.19812-1.1887.77718l-5.97439 4.51771 7.46679 5.4445 7.0801-5.46628-5.5634-4.45436c-.7491-.59976-.9607-.7507-1.167-.80965zm7.666 6.43669-7.5445 5.8249c-.264.2038-.6308.2088-.9002.0123l-8.01251-5.8424c-.02027.1371-.02421.3478-.02421.8285v6.2078c0 .5725.00058.9567.02476 1.2526.02345.2871.06534.4244.11148.5149.11995.2354.31105.4266.54605.5463.09053.0462.22789.0881.51517.1115.29599.0242.68032.0248 1.25273.0248h11.60003c.5724 0 .9565-.0006 1.2523-.0248.2869-.0234.4242-.0653.5148-.1115.2355-.1199.427-.3114.5466-.5463.0462-.0905.088-.2276.1114-.5148.0241-.2959.0247-.6801.0247-1.2526v-6.2628c0-.428-.0032-.6346-.0186-.7684z" fill="#9ea8ca" fill-rule="evenodd" data-original="#000000" class=""></path></g></svg>