<svg xmlns="http://www.w3.org/2000/svg" version="1.1" xmlns:xlink="http://www.w3.org/1999/xlink" xmlns:svgjs="http://svgjs.com/svgjs" width="32" height="32" x="0" y="0" viewBox="0 0 32 32" style="enable-background:new 0 0 512 512" xml:space="preserve" class=""><g><path d="m78.484375 347.964844-11.804687-27.570313 100.667968-42.714843 11.804688 27.566406zm0 0" fill="#61729B" data-original="#61729b"></path><path d="m325.976562 197.421875-22.78125-19.511719 101.882813-119.886718 22.777344 19.511718zm0 0" fill="#47568C" data-original="#47568c"></path><path d="m266.898438 439.417969-13.023438-92.1875 29.707031-4.25 13.023438 92.1875zm0 0" fill="#47568C" data-original="#47568c"></path><path d="m165.125 92.644531 53.441406 80.140625-24.960937 16.644532-53.441407-80.144532zm0 0" fill="#61729B" data-original="#61729b"></path><path d="m433.515625 374.140625-106.808594-60.453125 14.882813-26.046875 106.804687 60.453125zm0 0" fill="#47568C" data-original="#47568c"></path><path d="m436 90c-24.8125 0-45-20.1875-45-45s20.1875-45 45-45 45 20.1875 45 45-20.1875 45-45 45zm0 0" fill="#0095FF" data-original="#0095ff" class=""></path><path d="m136 121c-24.8125 0-45-20.1875-45-45s20.1875-45 45-45 45 20.1875 45 45-20.1875 45-45 45zm0 0" fill="#4BB9EC" data-original="#4bb9ec"></path><path d="m45 391c-24.8125 0-45-20.1875-45-45s20.1875-45 45-45 45 20.1875 45 45-20.1875 45-45 45zm0 0" fill="#4BB9EC" data-original="#4bb9ec"></path><path d="m286 512c-24.8125 0-45-20.1875-45-45s20.1875-45 45-45 45 20.1875 45 45-20.1875 45-45 45zm0 0" fill="#0095FF" data-original="#0095ff" class=""></path><path d="m467 421c-24.8125 0-45-20.1875-45-45s20.1875-45 45-45 45 20.1875 45 45-20.1875 45-45 45zm0 0" fill="#0095FF" data-original="#0095ff" class=""></path><path d="m256 151c-57.898438 0-105 47.101562-105 105s47.101562 105 105 105 105-47.101562 105-105-47.101562-105-105-105zm0 0" fill="#76E2F8" data-original="#76e2f8" class=""></path><path d="m361 256c0 57.898438-47.101562 105-105 105v-210c57.898438 0 105 47.101562 105 105zm0 0" fill="#25D9F8" data-original="#25d9f8" class=""></path></g></svg>